<svg xmlns="http://www.w3.org/2000/svg" width="24" height="24" viewBox="0 0 24 24"><path fill="#f58d3d" d="M4.23 19.385V10.23h-.192q-.44 0-.739-.3Q3 9.634 3 9.193V6.846q0-.44.299-.74q.3-.298.74-.298h4.103q-.298-.264-.412-.625q-.115-.362-.115-.76q0-.994.696-1.689q.695-.696 1.689-.696q.575 0 1.056.27t.829.704q.348-.439.828-.706q.481-.268 1.056-.268q.994 0 1.69.696q.695.695.695 1.69q0 .39-.117.752q-.118.362-.41.632h4.335q.44 0 .739.299t.299.74v2.345q0 .44-.299.74q-.3.299-.74.299h-.192v9.154q0 .666-.474 1.14q-.475.475-1.141.475H5.846q-.666 0-1.14-.475q-.475-.474-.475-1.14Zm9.54-16.347q-.59 0-.987.399q-.398.398-.398.986q0 .589.398.987t.986.398q.589 0 .987-.398t.398-.987q0-.588-.398-.986q-.398-.399-.987-.399ZM8.614 4.423q0 .589.398.987q.399.398.987.398t.987-.398q.398-.398.398-.987q0-.588-.398-.986q-.399-.399-.987-.399t-.987.399q-.398.398-.398.986ZM4 6.808V9.23h7.5V6.808H4ZM11.5 20v-9.77H5.23v9.155q0 .269.174.442t.442.173H11.5Zm1 0h5.654q.27 0 .442-.173t.173-.442V10.23H12.5V20ZM20 9.23V6.809h-7.5V9.23H20Z"/></svg>